<?xml version="1.0" encoding="utf-8"?>
<!-- Generator: Adobe Illustrator 17.0.0, SVG Export Plug-In . SVG Version: 6.00 Build 0)  -->
<!DOCTYPE svg PUBLIC "-//W3C//DTD SVG 1.1//EN" "http://www.w3.org/Graphics/SVG/1.1/DTD/svg11.dtd">
<svg version="1.1" id="Capa_1" xmlns="http://www.w3.org/2000/svg" xmlns:xlink="http://www.w3.org/1999/xlink" x="0px" y="0px"
	 width="271.617px" height="214.925px" viewBox="0 0 271.617 214.925" enable-background="new 0 0 271.617 214.925"
	 xml:space="preserve">
<path fill="#5A2B7B" d="M271.642,186.579c0,15.655-12.691,28.346-28.346,28.346H28.346C12.691,214.925,0,202.234,0,186.579V28.346
	C0,12.691,12.691,0,28.346,0h214.949c15.655,0,28.346,12.691,28.346,28.346V186.579z"/>
<path fill="#479794" d="M231.536,67.179c0,10.336-8.379,18.714-18.714,18.714H61.026c-10.336,0-18.714-8.379-18.714-18.714l0,0
	c0-10.336,8.379-18.714,18.714-18.714h151.795C223.157,48.465,231.536,56.843,231.536,67.179L231.536,67.179z"/>
<path fill="#479794" d="M231.536,140.418c0,10.336-8.379,18.714-18.714,18.714H61.026c-10.336,0-18.714-8.379-18.714-18.714l0,0
	c0-10.336,8.379-18.714,18.714-18.714h151.795C223.157,121.703,231.536,130.082,231.536,140.418L231.536,140.418z"/>
</svg>
